Coordinates
version=1
nRows=20
nColumns=34
inDegrees=no

Units are S.I. units (second, meters, Newtons, ...)
If the header above contains a line with 'inDegrees', this indicates whether rotational values are in degrees (yes) or radians (no).

endheader
time	pelvis_tilt	pelvis_list	pelvis_rotation	pelvis_tx	pelvis_ty	pelvis_tz	hip_flexion_r	hip_adduction_r	hip_rotation_r	knee_angle_r	ankle_angle_r	subtalar_angle_r	mtp_angle_r	hip_flexion_l	hip_adduction_l	hip_rotation_l	knee_angle_l	ankle_angle_l	subtalar_angle_l	mtp_angle_l	lumbar_extension	lumbar_bending	lumbar_rotation	arm_flex_r	arm_add_r	arm_rot_r	elbow_flex_r	pro_sup_r	arm_flex_l	arm_add_l	arm_rot_l	elbow_flex_l	pro_sup_l
0.92	-0.0120431	0.039606	-0.0235357	0.97086	0.965485	-0.285938	0.463658	-0.17812	-0.176845	0.85973	0.12032	-0.256562	0	0.0544236	0.0670595	-0.128845	0.157548	0.196545	-0.0706597	0	-0.109235	-0.0423466	-0.097622	-0.148892	-0.0821821	-0.253728	0.484013	2.09	0.14727	-0.19659	-0.140672	0.79028	2.09
0.93	-0.013392	0.0369076	-0.0211246	0.981733	0.965728	-0.287018	0.474544	-0.174029	-0.193982	0.80941	0.14108	-0.231378	0	0.0360469	0.0670875	-0.119187	0.144233	0.195956	-0.082262	0	-0.109606	-0.0381794	-0.102224	-0.15883	-0.0815581	-0.266863	0.477229	2.09	0.16275	-0.198987	-0.129071	0.81324	2.09
0.94	-0.0151827	0.0351894	-0.018611	0.992641	0.965687	-0.288048	0.484205	-0.171111	-0.212959	0.756841	0.15991	-0.206339	0	0.018334	0.0678939	-0.109588	0.131337	0.195149	-0.0941297	0	-0.109332	-0.0351531	-0.106837	-0.1688	-0.0811036	-0.279247	0.471773	2.09	0.17791	-0.201311	-0.118475	0.835452	2.09
0.95	-0.0171292	0.0344884	-0.0159467	1.00361	0.965379	-0.289031	0.492318	-0.169542	-0.234308	0.702631	0.178039	-0.178161	0	0.000987374	0.0695367	-0.0999651	0.118945	0.19416	-0.106295	0	-0.10874	-0.0333077	-0.111501	-0.178775	-0.080701	-0.291339	0.467642	2.09	0.192743	-0.203561	-0.108764	0.856862	2.09
0.96	-0.0190593	0.0347787	-0.0131014	1.01466	0.964811	-0.289963	0.498761	-0.169197	-0.258189	0.647399	0.195297	-0.145572	0	-0.0161125	0.0719781	-0.0903267	0.10723	0.19313	-0.118647	0	-0.108018	-0.032634	-0.116247	-0.188704	-0.0803127	-0.3031	0.464625	2.09	0.207191	-0.205771	-0.0998029	0.877445	2.09
0.97	-0.0208461	0.0359534	-0.0100255	1.02579	0.963997	-0.290833	0.503533	-0.169818	-0.284582	0.591852	0.211086	-0.108406	0	-0.0329762	0.0750689	-0.0807275	0.096473	0.192362	-0.130814	0	-0.107325	-0.0330393	-0.121111	-0.198527	-0.0799139	-0.314402	0.462481	2.09	0.221211	-0.208002	-0.0913824	0.897167	2.09
0.98	-0.0224461	0.0378254	-0.00667919	1.03701	0.962953	-0.291624	0.506826	-0.17102	-0.313148	0.5368	0.224713	-0.0676088	0	-0.049465	0.0785552	-0.0712714	0.0870501	0.192284	-0.14221	0	-0.106748	-0.0343476	-0.126116	-0.208163	-0.0794824	-0.325099	0.461012	2.09	0.234772	-0.210317	-0.0833026	0.915986	2.09
0.99	-0.0237472	0.0403139	-0.00277302	1.04832	0.96169	-0.292375	0.508779	-0.173718	-0.3467	0.48386	0.238856	-0.0183397	0	-0.0666265	0.0829258	-0.053183	0.0769718	0.186006	-0.167664	0	-0.106468	-0.0363591	-0.131168	-0.217973	-0.0784664	-0.338389	0.461309	2.09	0.248169	-0.212631	-0.074859	0.933533	2.09
1	-0.0252597	0.0427638	0.000847	1.05963	0.960242	-0.292904	0.510415	-0.173578	-0.374062	0.431534	0.24477	0.0181402	0	-0.0808332	0.0858696	-0.048635	0.0726047	0.191891	-0.168703	0	-0.105967	-0.0387906	-0.136573	-0.226458	-0.0784244	-0.344408	0.459669	2.09	0.260426	-0.215292	-0.0677974	0.950729	2.09
1.01	-0.0266719	0.0453622	0.0047481	1.07096	0.958624	-0.293316	0.5115	-0.173575	-0.402511	0.382261	0.250781	0.0560305	0	-0.0941241	0.0886416	-0.0434934	0.0703391	0.198531	-0.169466	0	-0.105659	-0.0415327	-0.141863	-0.234732	-0.0778097	-0.352402	0.459431	2.09	0.272426	-0.217971	-0.0605753	0.966606	2.09
1.02	-0.0282152	0.0478588	0.00853585	1.0823	0.956857	-0.293552	0.512461	-0.172074	-0.426382	0.335534	0.254448	0.0857776	0	-0.106042	0.0909211	-0.0390437	0.0705255	0.206451	-0.168613	0	-0.105279	-0.044446	-0.147022	-0.242289	-0.0771495	-0.359258	0.459477	2.09	0.28381	-0.220674	-0.0539204	0.981417	2.09
1.03	-0.029717	0.0501857	0.0123202	1.09365	0.954978	-0.293632	0.513137	-0.169932	-0.448222	0.292429	0.258536	0.111944	0	-0.116779	0.0926311	-0.035731	0.073197	0.215859	-0.165308	0	-0.105008	-0.0474067	-0.15213	-0.249111	-0.0763679	-0.365625	0.460035	2.09	0.294569	-0.223278	-0.0479408	0.995098	2.09
1.04	-0.0311443	0.0522721	0.0159241	1.10502	0.953017	-0.293547	0.513553	-0.166864	-0.466253	0.253243	0.262581	0.132209	0	-0.126419	0.0936961	-0.0342258	0.0782699	0.226683	-0.158997	0	-0.104842	-0.0503404	-0.157084	-0.255075	-0.0755657	-0.371138	0.460841	2.09	0.304565	-0.225687	-0.0429063	1.00766	2.09
1.05	-0.0322858	0.0540391	0.0192677	1.11645	0.951013	-0.293304	0.513489	-0.16291	-0.47976	0.218524	0.266388	0.146265	0	-0.13535	0.0940253	-0.0348637	0.0854681	0.238637	-0.149431	0	-0.104967	-0.0531143	-0.161845	-0.260114	-0.0748237	-0.375709	0.461628	2.09	0.313666	-0.227802	-0.0389823	1.01912	2.09
1.06	-0.0328603	0.0554081	0.0223027	1.12796	0.949013	-0.292919	0.512627	-0.158228	-0.488412	0.18894	0.269822	0.154781	0	-0.144095	0.0935178	-0.0377579	0.0944063	0.251299	-0.136612	0	-0.105634	-0.0555657	-0.166391	-0.26421	-0.0742297	-0.379307	0.462111	2.09	0.321709	-0.22954	-0.0362403	1.02953	2.09
1.07	-0.0325977	0.0562975	0.0249967	1.13961	0.947064	-0.292411	0.510622	-0.153004	-0.492059	0.16512	0.272915	0.15901	0	-0.153167	0.09206	-0.0429023	0.104693	0.264228	-0.120669	0	-0.107075	-0.0575121	-0.170687	-0.267412	-0.0738588	-0.382001	0.46213	2.09	0.328524	-0.230843	-0.0346458	1.0389	2.09
1.08	-0.0313413	0.0566203	0.0273289	1.15143	0.945201	-0.291794	0.50722	-0.147398	-0.490731	0.147527	0.275935	0.160572	0	-0.162887	0.0895237	-0.0502672	0.116053	0.277034	-0.101748	0	-0.109391	-0.0587679	-0.174674	-0.269835	-0.0737544	-0.384006	0.46177	2.09	0.333957	-0.231676	-0.0340757	1.04724	2.09
1.09	-0.029073	0.056214	0.0292572	1.16347	0.943455	-0.291066	0.50224	-0.141299	-0.484027	0.136136	0.278921	0.160073	0	-0.172914	0.08538	-0.0631627	0.129261	0.291735	-0.074395	0	-0.112533	-0.0590998	-0.178241	-0.271611	-0.0739025	-0.385708	0.461354	2.09	0.337891	-0.232028	-0.0343812	1.05445	2.09
1.1	-0.026202	0.0544735	0.0306317	1.17571	0.941806	-0.290141	0.495712	-0.133415	-0.468154	0.129581	0.279864	0.151874	0	-0.18006	0.0765415	-0.103227	0.150222	0.321874	-0.00358633	0	-0.11598	-0.0578956	-0.180832	-0.273109	-0.0737707	-0.38984	0.461985	2.09	0.340444	-0.2319	-0.0349866	1.06016	2.09
1.11	-0.023092	0.0527404	0.0318196	1.18822	0.940281	-0.289245	0.489191	-0.127341	-0.456795	0.130965	0.285027	0.157319	0	-0.191566	0.0711146	-0.106285	0.162366	0.324746	0.00536992	0	-0.119195	-0.0564066	-0.18372	-0.273777	-0.0749629	-0.389097	0.461538	2.09	0.340647	-0.231239	-0.037102	1.06492	2.09
